<svg width="75" height="13" viewBox="0 0 75 13" fill="none" xmlns="http://www.w3.org/2000/svg">
<path d="M3.458 12H5.082V3.054H8.12V1.682H0.434V3.054H3.458V12ZM9.05198 12H10.662V7.198C11.138 5.98 11.894 5.546 12.524 5.546C12.832 5.546 13.028 5.588 13.294 5.672L13.588 4.272C13.35 4.16 13.098 4.104 12.72 4.104C11.894 4.104 11.082 4.692 10.536 5.686H10.494L10.368 4.3H9.05198V12ZM17.7101 12.182C19.6141 12.182 21.3361 10.712 21.3361 8.15C21.3361 5.588 19.6141 4.104 17.7101 4.104C15.8061 4.104 14.0841 5.588 14.0841 8.15C14.0841 10.712 15.8061 12.182 17.7101 12.182ZM17.7101 10.866C16.5061 10.866 15.7501 9.788 15.7501 8.15C15.7501 6.526 16.5061 5.434 17.7101 5.434C18.9281 5.434 19.6841 6.526 19.6841 8.15C19.6841 9.788 18.9281 10.866 17.7101 10.866ZM24.8257 12.182C25.2317 12.182 25.4977 12.126 25.6937 12.056L25.4837 10.838C25.3437 10.866 25.2877 10.866 25.2177 10.866C25.0217 10.866 24.8397 10.712 24.8397 10.278V0.841999H23.2297V10.194C23.2297 11.44 23.6637 12.182 24.8257 12.182ZM28.9956 12.182C29.4016 12.182 29.6676 12.126 29.8636 12.056L29.6536 10.838C29.5136 10.866 29.4576 10.866 29.3876 10.866C29.1916 10.866 29.0096 10.712 29.0096 10.278V0.841999H27.3996V10.194C27.3996 11.44 27.8336 12.182 28.9956 12.182ZM35.1536 12.182C36.8896 12.182 38.4716 10.67 38.4716 8.024C38.4716 5.658 37.3656 4.104 35.4196 4.104C34.6076 4.104 33.7816 4.538 33.1236 5.112L33.1796 3.796V0.841999H31.5696V12H32.8296L32.9836 11.202H33.0256C33.6836 11.818 34.4536 12.182 35.1536 12.182ZM34.8456 10.852C34.3696 10.852 33.7676 10.67 33.1796 10.152V6.386C33.8096 5.756 34.3976 5.448 34.9996 5.448C36.2876 5.448 36.8056 6.442 36.8056 8.052C36.8056 9.858 35.9656 10.852 34.8456 10.852ZM41.9892 12.182C42.9132 12.182 43.7392 11.72 44.4392 11.118H44.4952L44.6212 12H45.9372V7.366C45.9372 5.322 45.0552 4.104 43.1372 4.104C41.9052 4.104 40.8272 4.608 40.0292 5.112L40.6312 6.204C41.2892 5.784 42.0452 5.42 42.8572 5.42C43.9912 5.42 44.3132 6.204 44.3272 7.1C41.1212 7.45 39.7212 8.304 39.7212 9.956C39.7212 11.314 40.6592 12.182 41.9892 12.182ZM42.4792 10.908C41.7932 10.908 41.2752 10.6 41.2752 9.844C41.2752 8.976 42.0452 8.388 44.3272 8.122V10.012C43.6972 10.586 43.1512 10.908 42.4792 10.908ZM50.3079 12.182C52.2119 12.182 53.2339 11.132 53.2339 9.844C53.2339 8.388 52.0439 7.912 50.9659 7.506C50.1259 7.198 49.3699 6.946 49.3699 6.288C49.3699 5.756 49.7619 5.336 50.6159 5.336C51.2459 5.336 51.7919 5.616 52.3239 6.008L53.0799 5.014C52.4639 4.524 51.6099 4.104 50.5879 4.104C48.8799 4.104 47.8439 5.07 47.8439 6.358C47.8439 7.66 48.9779 8.206 50.0139 8.598C50.8399 8.92 51.7079 9.228 51.7079 9.928C51.7079 10.516 51.2739 10.964 50.3499 10.964C49.5239 10.964 48.8519 10.614 48.1659 10.082L47.4099 11.118C48.1659 11.734 49.2439 12.182 50.3079 12.182ZM54.9485 12H56.5305V9.998L57.8185 8.514L59.9045 12H61.6545L58.7565 7.436L61.3605 4.3H59.5685L56.5865 8.024H56.5305V0.841999H54.9485V12ZM65.8654 12.182C66.8734 12.182 67.7554 11.846 68.4694 11.37L67.9094 10.348C67.3494 10.712 66.7614 10.922 66.0754 10.922C64.7454 10.922 63.8214 10.04 63.6954 8.57H68.6934C68.7354 8.374 68.7774 8.066 68.7774 7.744C68.7774 5.574 67.6714 4.104 65.6274 4.104C63.8354 4.104 62.1134 5.658 62.1134 8.15C62.1134 10.698 63.7794 12.182 65.8654 12.182ZM63.6814 7.45C63.8354 6.106 64.6894 5.364 65.6554 5.364C66.7754 5.364 67.3774 6.134 67.3774 7.45H63.6814ZM73.015 12.182C73.575 12.182 74.093 12.042 74.527 11.902L74.233 10.712C74.009 10.81 73.673 10.894 73.407 10.894C72.609 10.894 72.287 10.418 72.287 9.494V5.588H74.289V4.3H72.287V2.172H70.943L70.761 4.3L69.557 4.384V5.588H70.677V9.48C70.677 11.104 71.279 12.182 73.015 12.182Z" fill="#333333"/>
</svg>
